Coordinates
version=1
nRows=33
nColumns=33
inDegrees=yes

Units are S.I. units (second, meters, Newtons, ...)
Angles are in degrees.

endheader
time	ground_thorax_rot_x	ground_thorax_rot_y	ground_thorax_rot_z	ground_thorax_tx	ground_thorax_ty	ground_thorax_tz	clav_prot_r	clav_elev_r	scapula_abduction_r	scapula_elevation_r	scapula_upward_rot_r	scapula_winging_r	shoulder_elv_r	plane_of_elev_r	axial_rot_r	elbow_flexion_r	pro_sup_r	wrist_flex_r	wrist_dev_r	clav_prot_l	clav_elev_l	scapula_abduction_l	scapula_elevation_l	scapula_upward_rot_l	scapula_winging_l	shoulder_elv_l	plane_of_elev_l	axial_rot_l	elbow_flexion_l	pro_sup_l	wrist_flex_l	wrist_dev_l	
6.3700	90.000000	-90.000000	-90.000000	-81.234143	830.884178	-39.492420	-45.000000	-5.310657	-32.181725	9.416862	-45.000000	-2269.040476	-1508.987251	145.663876	158.175686	-0.040765	165.445601	13.735343	14.337605	0.515855	45.000000	-45.000000	-45.000000	20.274609	-3938.655104	-2414.973585	11.355002	-94.698128	350.712403	-319.271206	12.723779	-17.786824	
6.3800	90.000000	-90.000000	-90.000000	-82.601659	833.073214	-39.567766	-45.000000	-5.471363	-32.077125	9.178820	-45.000000	-2269.030688	-1508.885747	145.712189	158.128973	-0.091637	164.778219	13.738577	14.386678	0.321118	45.000000	-45.000000	-45.000000	20.284344	-3938.805336	-2414.953826	11.360839	-94.796762	350.712019	-319.377732	12.773034	-17.914914	
6.3900	90.000000	-90.000000	-90.000000	-83.882688	835.263649	-39.666650	-45.000000	-5.655240	-31.978165	8.935116	-45.000000	-2269.035768	-1508.780347	145.757761	158.064754	-0.148655	164.111675	13.744040	14.436205	0.140818	45.000000	-45.000000	-45.000000	20.291291	-3938.961125	-2414.934346	11.356795	-94.877972	350.711283	-319.489026	12.825239	-18.050560	
6.4000	90.000000	-90.000000	-90.000000	-85.079093	837.448152	-39.790184	-45.000000	-5.847150	-31.885443	8.699513	-45.000000	-2269.046791	-1508.678611	145.802096	157.985512	-0.218304	163.458359	13.755828	14.484222	-0.026556	45.000000	-45.000000	-45.000000	20.296147	-3939.121410	-2414.917425	11.343696	-94.942350	350.708196	-319.600865	12.881600	-18.194253	
6.4100	90.000000	-90.000000	-90.000000	-86.193651	839.618065	-39.938478	-45.000000	-6.039605	-31.797556	8.472650	-45.000000	-2269.060909	-1508.579616	145.845186	157.895319	-0.301744	162.832789	13.776544	14.529850	-0.182352	45.000000	-45.000000	-45.000000	20.298380	-3939.283604	-2414.902575	11.325234	-94.993632	350.704130	-319.709807	12.939637	-18.344667	
6.4200	90.000000	-90.000000	-90.000000	-87.229713	841.763514	-40.110224	-45.000000	-6.224680	-31.717526	8.255956	-45.000000	-2269.076120	-1508.481584	145.886780	157.799743	-0.393490	162.250387	13.807923	14.572546	-0.327603	45.000000	-45.000000	-45.000000	20.299010	-3939.445986	-2414.889046	11.302990	-95.033126	350.699667	-319.812782	12.998025	-18.501410	
6.4300	90.000000	-90.000000	-90.000000	-88.190550	843.873656	-40.302951	-45.000000	-6.399952	-31.644038	8.050937	-45.000000	-2269.091619	-1508.385250	145.925972	157.701431	-0.491938	161.724952	13.854313	14.612143	-0.462751	45.000000	-45.000000	-45.000000	20.299544	-3939.609639	-2414.877666	11.274573	-95.060479	350.694160	-319.906851	13.058257	-18.667030	
6.4400	90.000000	-90.000000	-90.000000	-89.078903	845.936901	-40.513041	-45.000000	-6.566926	-31.577062	7.857802	-45.000000	-2269.107722	-1508.289365	145.961706	157.600826	-0.595545	161.268445	13.918454	14.649645	-0.587783	45.000000	-45.000000	-45.000000	20.299623	-3939.773682	-2414.867432	11.240536	-95.075631	350.687449	-319.988714	13.119276	-18.841664	
6.4500	90.000000	-90.000000	-90.000000	-89.896613	847.941116	-40.736349	-45.000000	-6.748961	-31.512143	7.676524	-45.000000	-2269.132243	-1508.194515	145.986612	157.493129	-0.706964	160.889096	14.009031	14.686131	-0.701481	45.000000	-45.000000	-45.000000	20.298190	-3939.945430	-2414.856547	11.191996	-95.073225	350.677368	-320.054940	13.185089	-19.034090	
6.4600	90.000000	-90.000000	-90.000000	-90.644759	849.873869	-40.968424	-45.000000	-6.931658	-31.456954	7.504726	-45.000000	-2269.160924	-1508.093561	146.004070	157.381558	-0.819361	160.593274	14.120054	14.724792	-0.803633	45.000000	-45.000000	-45.000000	20.296061	-3940.118796	-2414.846027	11.134386	-95.054942	350.665764	-320.101446	13.251403	-19.240453	
6.4700	90.000000	-90.000000	-90.000000	-91.323850	851.722447	-41.204961	-45.000000	-7.101384	-31.405943	7.348425	-45.000000	-2269.191624	-1507.995996	146.017907	157.268430	-0.929415	160.380963	14.250509	14.763714	-0.895968	45.000000	-45.000000	-45.000000	20.291019	-3940.290221	-2414.833353	11.069187	-95.023475	350.652144	-320.123556	13.315014	-19.460026	
6.4800	90.000000	-90.000000	-90.000000	-91.934380	853.474003	-41.441737	-45.000000	-7.228484	-31.368814	7.209544	-45.000000	-2269.214147	-1507.897422	146.035485	157.161574	-1.031569	160.251670	14.387725	14.804204	-0.979779	45.000000	-45.000000	-45.000000	20.282929	-3940.447781	-2414.820769	11.009532	-94.985618	350.639054	-320.115740	13.366850	-19.682021	
6.4900	90.000000	-90.000000	-90.000000	-92.477351	855.115918	-41.674565	-45.000000	-7.305038	-31.333755	7.100913	-45.000000	-2269.226498	-1507.817211	146.058112	157.060398	-1.128044	160.199512	14.534438	14.840301	-1.057055	45.000000	-45.000000	-45.000000	20.269278	-3940.590241	-2414.804538	10.953523	-94.942938	350.625379	-320.072415	13.404440	-19.907658	
6.5000	90.000000	-90.000000	-90.000000	-92.954312	856.635634	-41.899292	-45.000000	-7.311015	-31.310005	7.024295	-45.000000	-2269.219323	-1507.747871	146.089709	156.970258	-1.218662	160.223593	14.679367	14.872998	-1.128025	45.000000	-45.000000	-45.000000	20.252363	-3940.708680	-2414.788860	10.911544	-94.900301	350.613026	-319.987618	13.420979	-20.127889	
6.5100	90.000000	-90.000000	-90.000000	-93.367014	858.020253	-42.111962	-45.000000	-7.250866	-31.284818	6.987300	-45.000000	-2269.196947	-1507.703561	146.128129	156.889633	-1.303836	160.318470	14.829765	14.895879	-1.193986	45.000000	-45.000000	-45.000000	20.230316	-3940.808712	-2414.768107	10.875204	-94.855697	350.599520	-319.857942	13.417576	-20.349925	
6.5200	90.000000	-90.000000	-90.000000	-93.716533	859.255688	-42.309316	-45.000000	-7.135486	-31.268259	6.981563	-45.000000	-2269.160495	-1507.666434	146.169708	156.819840	-1.384597	160.485589	14.977740	14.911440	-1.252217	45.000000	-45.000000	-45.000000	20.207559	-3940.890292	-2414.748463	10.847149	-94.808241	350.585157	-319.681463	13.394437	-20.570103	
6.5300	90.000000	-90.000000	-90.000000	-94.003119	860.327491	-42.489013	-45.000000	-6.986078	-31.248758	7.013420	-45.000000	-2269.119612	-1507.650512	146.206935	156.752358	-1.461059	160.719897	15.139315	14.912660	-1.302527	45.000000	-45.000000	-45.000000	20.182181	-3940.967049	-2414.723587	10.811999	-94.752371	350.567611	-319.461280	13.357657	-20.802366	
6.5400	90.000000	-90.000000	-90.000000	-94.225770	861.221442	-42.650095	-45.000000	-6.803144	-31.238141	7.075815	-45.000000	-2269.070200	-1507.640149	146.240722	156.687708	-1.534251	161.025906	15.296610	14.903981	-1.342282	45.000000	-45.000000	-45.000000	20.159506	-3941.027557	-2414.702747	10.784197	-94.694543	350.552783	-319.200980	13.303321	-21.028532	
6.5500	90.000000	-90.000000	-90.000000	-94.382939	861.925783	-42.792694	-45.000000	-6.587254	-31.229658	7.177134	-45.000000	-2269.018190	-1507.652448	146.268502	156.619009	-1.591398	161.393841	15.471261	14.874708	-1.373488	45.000000	-45.000000	-45.000000	20.136389	-3941.088158	-2414.678066	10.746920	-94.632637	350.537067	-318.910754	13.239002	-21.267178	
6.5600	90.000000	-90.000000	-90.000000	-94.473035	862.433002	-42.917924	-45.000000	-6.345718	-31.230096	7.311419	-45.000000	-2268.958480	-1507.676567	146.293185	156.545794	-1.639694	161.828700	15.632924	14.833787	-1.393679	45.000000	-45.000000	-45.000000	20.116763	-3941.128247	-2414.658902	10.726002	-94.578260	350.529277	-318.596127	13.157577	-21.482554	
6.5700	90.000000	-90.000000	-90.000000	-94.495639	862.742552	-43.027355	-45.000000	-6.072998	-31.234855	7.476390	-45.000000	-2268.897020	-1507.718352	146.315770	156.456863	-1.675585	162.314273	15.816212	14.775120	-1.405474	45.000000	-45.000000	-45.000000	20.096353	-3941.168683	-2414.634486	10.694054	-94.523507	350.522268	-318.271310	13.070390	-21.708574	
6.5800	90.000000	-90.000000	-90.000000	-94.451139	862.859754	-43.122973	-45.000000	-5.778654	-31.242858	7.660928	-45.000000	-2268.828638	-1507.770069	146.347596	156.354218	-1.713701	162.855303	15.974171	14.715201	-1.406432	45.000000	-45.000000	-45.000000	20.078720	-3941.176115	-2414.614414	10.683417	-94.482493	350.527902	-317.939260	12.966894	-21.890854	
6.5900	90.000000	-90.000000	-90.000000	-94.340927	862.795168	-43.206864	-45.000000	-5.460514	-31.257828	7.861732	-45.000000	-2268.763385	-1507.830544	146.382997	156.226682	-1.737188	163.426221	16.156525	14.643423	-1.399730	45.000000	-45.000000	-45.000000	20.057849	-3941.189529	-2414.587121	10.654734	-94.439634	350.528976	-317.614914	12.866023	-22.087815	
6.6000	90.000000	-90.000000	-90.000000	-94.166614	862.562204	-43.281261	-45.000000	-5.131558	-31.280776	8.077544	-45.000000	-2268.692480	-1507.901708	146.429764	156.081394	-1.757348	164.028549	16.298027	14.578973	-1.383084	45.000000	-45.000000	-45.000000	20.037064	-3941.169099	-2414.563617	10.652930	-94.413251	350.541333	-317.298042	12.751903	-22.225091	
6.6100	90.000000	-90.000000	-90.000000	-93.930130	862.176596	-43.348301	-45.000000	-4.786764	-31.314246	8.306131	-45.000000	-2268.625357	-1507.980718	146.478305	155.903775	-1.762877	164.627661	16.468759	14.506158	-1.360450	45.000000	-45.000000	-45.000000	20.011933	-3941.164708	-2414.533406	10.629487	-94.382612	350.543929	-317.004026	12.647715	-22.385025	
6.6200	90.000000	-90.000000	-90.000000	-93.633049	861.654424	-43.409725	-45.000000	-4.441204	-31.357856	8.554553	-45.000000	-2268.551122	-1508.077521	146.532510	155.704225	-1.765816	165.223179	16.596436	14.442364	-1.329156	45.000000	-45.000000	-45.000000	19.988078	-3941.134784	-2414.508239	10.632420	-94.367502	350.556706	-316.729692	12.535271	-22.484668	
6.6300	90.000000	-90.000000	-90.000000	-93.276916	861.012607	-43.466320	-45.000000	-4.095350	-31.416145	8.817968	-45.000000	-2268.484340	-1508.181024	146.579585	155.472296	-1.743696	165.780407	16.758866	14.367634	-1.292695	45.000000	-45.000000	-45.000000	19.962672	-3941.136285	-2414.478054	10.609437	-94.343433	350.554322	-316.488137	12.440859	-22.621360	
6.6400	90.000000	-90.000000	-90.000000	-92.863229	860.269566	-43.517589	-45.000000	-3.758038	-31.487435	9.098470	-45.000000	-2268.412678	-1508.298708	146.626699	155.223243	-1.713805	166.303232	16.872005	14.304282	-1.248284	45.000000	-45.000000	-45.000000	19.938365	-3941.118003	-2414.452378	10.613373	-94.332315	350.561519	-316.273260	12.339773	-22.699352	
6.6500	90.000000	-90.000000	-90.000000	-92.393249	859.445678	-43.561779	-45.000000	-3.445535	-31.565372	9.371653	-45.000000	-2268.355540	-1508.411288	146.668127	154.949352	-1.670673	166.765756	17.009059	14.240863	-1.197757	45.000000	-45.000000	-45.000000	19.911552	-3941.125888	-2414.421747	10.593344	-94.307343	350.556815	-316.093739	12.255355	-22.811096	
6.6600	90.000000	-90.000000	-90.000000	-91.867423	858.563031	-43.596202	-45.000000	-3.142465	-31.647861	9.644722	-45.000000	-2268.297535	-1508.533201	146.712903	154.664143	-1.625480	167.168574	17.102894	14.188806	-1.139166	45.000000	-45.000000	-45.000000	19.883196	-3941.114106	-2414.395899	10.590893	-94.287470	350.558482	-315.942347	12.167018	-22.878813	
6.6700	90.000000	-90.000000	-90.000000	-91.285493	857.644275	-43.618015	-45.000000	-2.884873	-31.732464	9.897768	-45.000000	-2268.257025	-1508.647768	146.752219	154.366293	-1.568354	167.492742	17.208584	14.147535	-1.074070	45.000000	-45.000000	-45.000000	19.848312	-3941.124336	-2414.366893	10.563588	-94.249866	350.547054	-315.822982	12.096484	-22.979278	
6.6800	90.000000	-90.000000	-90.000000	-90.645908	856.712777	-43.625044	-45.000000	-2.657620	-31.821366	10.136862	-45.000000	-2268.219970	-1508.766787	146.791705	154.066188	-1.508029	167.738445	17.269216	14.129624	-1.000741	45.000000	-45.000000	-45.000000	19.806420	-3941.118333	-2414.341938	10.544277	-94.209672	350.540452	-315.729508	12.025259	-23.047924	
6.6900	90.000000	-90.000000	-90.000000	-89.950013	855.786757	-43.617037	-45.000000	-2.497632	-31.908084	10.345658	-45.000000	-2268.203169	-1508.879103	146.824764	153.761761	-1.442339	167.901262	17.325994	14.137420	-0.919356	45.000000	-45.000000	-45.000000	19.756766	-3941.125922	-2414.315820	10.501574	-94.149037	350.528024	-315.661677	11.969288	-23.139906	
